<?xml version="1.0" encoding="utf-8"?>
<!-- Generator: Adobe Illustrator 21.0.2, SVG Export Plug-In . SVG Version: 6.00 Build 0)  -->
<svg version="1.1" id="Layer_1" xmlns="http://www.w3.org/2000/svg" xmlns:xlink="http://www.w3.org/1999/xlink" x="0px" y="0px"
	 viewBox="0 0 100 100" style="enable-background:new 0 0 100 100;" xml:space="preserve">
<path d="M86.5,89c-6.8,0-12.9,0-19.8,0c-3.2-7.7-6.5-15.8-9.9-24c-9.7,0-18.7,0-28.7,0c-3.3,7.2-7,15.1-8.8,23.7c-1.8,0-3.3,0-6,0
	C22.5,63.5,31.6,38.7,40.6,14c6.5,0,12.6,0,19.4,0C68.7,38.6,77.5,63.5,86.5,89z M78.2,82.7c-6.7-21.6-14.6-42.2-21.8-62.3
	c-3.3,0-5.5,0-8.6,0c7.3,21,14.5,41.5,21.7,62.3C72,82.7,75,82.7,78.2,82.7z M29.6,60.2c8.7,0,16.6,0,25.2,0
	c-2.3-12.9-8.8-24-11.7-38.4C38.2,35.8,34,47.8,29.6,60.2z"/>
</svg>
