<?xml version="1.0" encoding="utf-8"?>
<!-- Generator: Adobe Illustrator 20.1.0, SVG Export Plug-In . SVG Version: 6.00 Build 0)  -->
<svg version="1.1" id="Layer_1" xmlns="http://www.w3.org/2000/svg" xmlns:xlink="http://www.w3.org/1999/xlink" x="0px" y="0px"
	 viewBox="0 0 150 150" style="enable-background:new 0 0 150 150;" xml:space="preserve">
<g>
	<path d="M80.6,74.7l56.1-56.1c1.7-1.7,1.7-4.4,0-6.1s-4.4-1.7-6.1,0l-56,56.2L18.5,12.5c-1.7-1.7-4.4-1.7-6.1,0s-1.7,4.4,0,6.1
		l56.1,56.1l-56.1,56.1c-1.7,1.7-1.7,4.4,0,6.1c0.8,0.8,1.9,1.3,3,1.3s2.2-0.4,3-1.3l56.1-56.1l56.1,56.1c0.8,0.8,1.9,1.3,3,1.3
		s2.2-0.4,3-1.3c1.7-1.7,1.7-4.4,0-6.1L80.6,74.7z"/>
</g>
</svg>
