<?xml version="1.0" encoding="utf-8"?>
<!-- Generator: Adobe Illustrator 21.0.1, SVG Export Plug-In . SVG Version: 6.00 Build 0)  -->
<svg version="1.1" id="Layer_1" xmlns="http://www.w3.org/2000/svg" xmlns:xlink="http://www.w3.org/1999/xlink" x="0px" y="0px"
	 viewBox="0 0 100 100" style="enable-background:new 0 0 100 100;" xml:space="preserve">
<path d="M49.7,14C28.9,14,12,30.9,12,51.7c0,16.7,10.9,31,25.9,35.8c1.9,0.2,2.7-0.7,2.7-1.9c0-1,0-3.4,0-6.5
	C29.9,81.3,27.7,74,27.7,74c-1.7-4.4-4.1-5.6-4.1-5.6C20.2,66,23.9,66,23.9,66c3.9,0.2,5.8,3.9,5.8,3.9c3.4,5.8,9,4.1,11.1,3.1
	C41,70.6,42,69,43.2,68c-8.7-0.3-17.6-3.4-17.6-17.9c0-4.1,1.4-7.5,3.9-10.2c-0.5-1-1.7-4.9,0.5-9.9c0,0,3.1-1,10.4,3.9
	c2.9-0.7,6.3-1.2,9.4-1.2s6.5,0.5,9.4,1.2C66.5,29,69.6,30,69.6,30c2.2,5.3,0.7,9,0.5,9.9c2.4,2.7,3.9,6,3.9,10.2
	c0,14.5-9,17.7-17.2,18.6c1.4,1.2,2.7,3.4,2.7,7c0,5.1,0,9.2,0,10.4c0,1,0.7,2.2,2.7,1.9C77.1,82.9,88,68.9,88,52.2
	C87.5,30.9,70.6,14,49.7,14z"/>
</svg>
